
<svg version="1.1" id="logo" xmlns="http://www.w3.org/2000/svg" xmlns:xlink="http://www.w3.org/1999/xlink" x="0px" y="0px" viewBox="0 0 312.6 49" style="enable-background:new 0 0 312.6 49;" xml:space="preserve">
	<g>
		<path d="M29.9,13.5l-3.7-5.8l-8.3,13.9l-8.5-4.9l8.2-14.2c0.7-1.2,1.2-2.3,2.6-2.4L30.2,0c1.4-0.2,2.8,0.6,3.8,1.8l3.6,5.6l2.8-1.7 l-2.3,12.5L27,15.1L29.9,13.5z"/>
		<path d="M12.6,29.3l-3.2,6l16.2,0.5l-0.2,9.9L9,45.3c-1.4,0-2.6,0-3.3-1.1l-4.9-8.8c-0.9-1.1-0.9-2.7-0.2-4.2l3.2-5.9l-2.8-1.6 l12-4.1L15.5,31L12.6,29.3z"/>
		<path d="M36.2,35.9l6.8-0.3l-7.9-14.2l8.6-4.9l8.2,14.3c0.7,1.2,1.4,2.2,0.8,3.4l-5,8.7c-0.5,1.3-1.9,2.1-3.5,2.4l-6.7,0.3l0,3.3 l-9.7-8.2l8.3-8.1V35.9z"/>
	</g>
	<g>
		<path d="M97.8,7.7v6.9h-9.2v26.6h-7.2V14.7H72V7.7H97.8z"/>
		<path d="M114.1,14.7v19.6h3.6v6.9h-14.4v-6.9h3.6V14.7h-3.6V7.7h14.5v6.9H114.1z"/>
		<path d="M144.3,14.7H133v26.6h-7.2V7.7h18.5V14.7z M144.3,41.2V14.7h7.2v26.6L144.3,41.2L144.3,41.2z"/>
		<path d="M183.6,7.7v33.5h-24.5v-6.9h17.2v-5.4h-10.8v-6.9h-7.2V7.7h7.2v14.2h10.8V7.7H183.6z"/>
		<path d="M198,34.3h16.8v6.9h-24.1V7.7h17.5v6.9H198L198,34.3L198,34.3z M208.2,21.7v-7h7.2v7H208.2z"/>
		<path d="M240.3,25.1v7h-10.8v9.1h-7.2V7.7h18v6.9h-10.8v10.4L240.3,25.1L240.3,25.1z M240.3,25.1V14.7h7.2v10.4H240.3z M240.3,41.2 v-9.1h7.2v9.1H240.3z"/>
		<path d="M279.6,14.7v26.6h-7.2v-9.1h-10.2v9.1h-7.2V7.7h17.5v6.9h-10.2v10.4h10.2V14.7H279.6z"/>
		<path d="M312.6,14.7v17.4h-18v9.1h-7.2V7.7h18v6.9h-10.8v10.4h10.8V14.7H312.6z"/>
	</g>
</svg>
