<svg version="1.1" xmlns="http://www.w3.org/2000/svg" x="0px" y="0px" viewBox="0 0 500 407" style="enable-background:new 0 0 500 407;" xml:space="preserve">
	<g class="tinycrap--logo">
		<path d="M17.6,407.3v-52.9H0v-8.8h52.9v8.8H35.3v52.9H17.6z"/>
		<path d="M73.5,354.4h-8.8v-8.8H100v8.8h-8.8v44.1h8.8v8.8H64.7v-8.8h8.8V354.4z"/>
		<path d="M139.2,345.6v8.8h8.8v17.6h8.8v-26.4h17.6v61.7h-17.6v-8.8H148v-8.8h-8.8v-17.6h-8.8v35.3h-17.6v-61.7H139.2z "/>
		<path d="M196.1,372.1h-8.8v-26.4h17.6v26.4h17.6v-26.4h17.6v26.4h-8.8v8.8h-8.8v26.4h-17.6v-26.4h-8.8V372.1z"/>
		<path d="M260.8,398.5H252v-44.1h8.8v-8.8h35.3v8.8h8.8v8.8h-17.6v-8.8h-17.6v44.1h17.6v-8.8h17.6v8.8h-8.8v8.8h-35.3 V398.5z"/>
		<path d="M360.8,354.4h8.8v17.6h-8.8v8.8H352v8.8h8.8v8.8h8.8v8.8H352v-8.8h-8.8v-8.8h-8.8v17.6h-17.6v-61.7h44.1 V354.4z M352,372.1v-17.6h-17.6v17.6H352z"/>
		<path d="M399,354.4v-8.8h17.6v8.8h8.8v17.6h8.8v35.3h-17.6v-17.6H399v17.6h-17.6v-35.3h8.8v-17.6H399z M399,380.9 h17.6v-17.6H399V380.9z"/>
		<path d="M491.2,354.4h8.8v17.6h-8.8v8.8h-26.4v26.4h-17.6v-61.7h44.1V354.4z M482.4,372.1v-17.6h-17.6v17.6H482.4z"/>
	</g>
	<g class="tinycrap--logo">
		<path d="M270.7,81.6l-22.1-34.7l-50,84.1l-51.5-29.8l49.7-86c4.2-7.1,7.5-13.8,15.5-14.5L273,0.2 c8.4-1.2,16.7,3.4,23.2,11.1L318,45.1L334.9,35l-13.7,75.3l-67.7-18.9L270.7,81.6z"/>
		<path d="M166.9,176.6l-19.6,36.1l97.8,2.9l-1.1,59.5l-99.3-1.8c-8.2-0.2-15.7,0.1-20.2-6.5L94.6,214 c-5.1-6.8-5.1-16.3-1.5-25.6l19-35.5l-17-9.9l72.5-24.5l16.3,68.4L166.9,176.6z"/>
		<path d="M309,216.7L350,215l-47.6-85.4l51.7-29.6l49.4,86.2c4,7.2,8.2,13.5,4.7,20.7l-30,52.7 c-3.2,7.9-11.3,12.8-21.2,14.5l-40.2,1.9l0.2,19.7L258.7,246L309,197L309,216.7z"/>
	</g>
</svg>